<?xml version="1.0" encoding="UTF-8" standalone="no"?>
<!DOCTYPE svg PUBLIC "-//W3C//DTD SVG 1.1//EN"
 "http://www.w3.org/Graphics/SVG/1.1/DTD/svg11.dtd">
<!-- Generated by graphviz version 2.38.0 (20140413.2041)
 -->
<!-- Title: processingpipeline Pages: 1 -->
<svg width="635pt" height="559pt"
 viewBox="0.00 0.00 635.38 558.93" xmlns="http://www.w3.org/2000/svg" xmlns:xlink="http://www.w3.org/1999/xlink">
<g id="graph0" class="graph" transform="scale(1 1) rotate(0) translate(4 554.93)">
<title>processingpipeline</title>
<polygon fill="white" stroke="none" points="-4,4 -4,-554.93 631.383,-554.93 631.383,4 -4,4"/>
<g id="clust3" class="cluster"><title>cluster_parsing</title>
<polygon fill="#f5f5f0" stroke="#f5f5f0" points="90.1904,-8 90.1904,-178 234.19,-178 234.19,-8 90.1904,-8"/>
</g>
<!-- PS -->
<g id="node1" class="node"><title>PS</title>
<ellipse fill="none" stroke="black" cx="88.1904" cy="-390.368" rx="65.1077" ry="25.4118"/>
<text text-anchor="start" x="64.1904" y="-394.168" font-family="Times,serif" font-size="14.00">parsing &#160;</text>
<text text-anchor="start" x="50.1904" y="-380.168" font-family="Times,serif" font-size="14.00"> </text>
<text text-anchor="start" x="54.1904" y="-380.168" font-family="Times,serif" font-size="10.00">Extract semantics</text>
</g>
<!-- WE -->
<g id="node2" class="node"><title>WE</title>
<ellipse fill="none" stroke="black" cx="238.19" cy="-390.368" rx="66.8882" ry="18"/>
<text text-anchor="middle" x="238.19" y="-386.668" font-family="Times,serif" font-size="14.00">word expansion</text>
</g>
<!-- PS&#45;&gt;WE -->
<g id="edge2" class="edge"><title>PS&#45;&gt;WE</title>
<path fill="none" stroke="black" d="M153.522,-390.368C155.987,-390.368 158.452,-390.368 160.917,-390.368"/>
<polygon fill="black" stroke="black" points="161.051,-393.868 171.051,-390.368 161.051,-386.868 161.051,-393.868"/>
</g>
<!-- PA -->
<g id="node8" class="node"><title>PA</title>
<polygon fill="none" stroke="black" points="216.19,-170 108.19,-170 108.19,-134 216.19,-134 216.19,-170"/>
<text text-anchor="start" x="143.69" y="-155.8" font-family="Times,serif" font-size="14.00">parser </text>
<text text-anchor="start" x="116.19" y="-141.8" font-family="Times,serif" font-size="14.00"> </text>
<text text-anchor="start" x="120.19" y="-141.8" font-family="Times,serif" font-size="10.00">Make sense of tokens</text>
</g>
<!-- PS&#45;&gt;PA -->
<g id="edge7" class="edge"><title>PS&#45;&gt;PA</title>
<path fill="none" stroke="black" stroke-dasharray="1,5" d="M94.8874,-365C103.04,-335.681 117.429,-285.027 131.19,-242 138.149,-220.242 146.738,-195.744 153.109,-177.967"/>
</g>
<!-- WS -->
<g id="node3" class="node"><title>WS</title>
<ellipse fill="none" stroke="black" cx="383.19" cy="-390.368" rx="59.5901" ry="18"/>
<text text-anchor="middle" x="383.19" y="-386.668" font-family="Times,serif" font-size="14.00">word splitting</text>
</g>
<!-- WE&#45;&gt;WS -->
<g id="edge3" class="edge"><title>WE&#45;&gt;WS</title>
<path fill="none" stroke="black" d="M305.309,-390.368C307.927,-390.368 310.545,-390.368 313.162,-390.368"/>
<polygon fill="black" stroke="black" points="313.259,-393.868 323.259,-390.368 313.259,-386.868 313.259,-393.868"/>
</g>
<!-- CS -->
<g id="node5" class="node"><title>CS</title>
<ellipse fill="none" stroke="black" cx="238.19" cy="-267.456" rx="97.6615" ry="25.4118"/>
<text text-anchor="start" x="177.19" y="-271.256" font-family="Times,serif" font-size="14.00">command substitution</text>
<text text-anchor="start" x="199.69" y="-257.256" font-family="Times,serif" font-size="14.00"> </text>
<text text-anchor="start" x="203.69" y="-257.256" font-family="monospace" font-size="10.00">parse_comsub</text>
</g>
<!-- WE&#45;&gt;CS -->
<g id="edge10" class="edge"><title>WE&#45;&gt;CS</title>
<path fill="none" stroke="black" d="M238.19,-372.3C238.19,-354.43 238.19,-325.869 238.19,-303.219"/>
<polygon fill="black" stroke="black" points="241.69,-302.968 238.19,-292.969 234.69,-302.969 241.69,-302.968"/>
</g>
<!-- GL -->
<g id="node4" class="node"><title>GL</title>
<ellipse fill="none" stroke="black" cx="544.19" cy="-390.368" rx="83.3857" ry="18"/>
<text text-anchor="middle" x="544.19" y="-386.668" font-family="Times,serif" font-size="14.00">pathname expansion</text>
</g>
<!-- WS&#45;&gt;GL -->
<g id="edge4" class="edge"><title>WS&#45;&gt;GL</title>
<path fill="none" stroke="black" d="M443.251,-390.368C445.746,-390.368 448.241,-390.368 450.736,-390.368"/>
<polygon fill="black" stroke="black" points="450.994,-393.868 460.994,-390.368 450.994,-386.868 450.994,-393.868"/>
</g>
<!-- CE -->
<g id="node6" class="node"><title>CE</title>
<ellipse fill="none" stroke="black" cx="490.19" cy="-267.456" rx="83.6854" ry="18"/>
<text text-anchor="middle" x="490.19" y="-263.756" font-family="Times,serif" font-size="14.00">command extraction</text>
</g>
<!-- GL&#45;&gt;CE -->
<g id="edge5" class="edge"><title>GL&#45;&gt;CE</title>
<path fill="none" stroke="black" d="M536.568,-372.3C527.563,-352.137 512.479,-318.363 501.968,-294.827"/>
<polygon fill="black" stroke="black" points="505.048,-293.14 497.774,-285.436 498.656,-295.994 505.048,-293.14"/>
</g>
<!-- CS&#45;&gt;PA -->
<g id="edge9" class="edge"><title>CS&#45;&gt;PA</title>
<path fill="none" stroke="black" stroke-dasharray="1,5" d="M221.886,-242.117C209.216,-223.202 191.706,-197.062 178.927,-177.985"/>
</g>
<!-- EX -->
<g id="node10" class="node"><title>EX</title>
<ellipse fill="none" stroke="black" cx="337.19" cy="-152" rx="44.6926" ry="18"/>
<text text-anchor="middle" x="337.19" y="-148.3" font-family="Times,serif" font-size="14.00">execution</text>
</g>
<!-- CE&#45;&gt;EX -->
<g id="edge6" class="edge"><title>CE&#45;&gt;EX</title>
<path fill="none" stroke="black" d="M467.943,-249.958C440.938,-229.933 395.35,-196.127 365.768,-174.191"/>
<polygon fill="black" stroke="black" points="367.626,-171.212 357.509,-168.067 363.457,-176.835 367.626,-171.212"/>
</g>
<!-- LA -->
<g id="node7" class="node"><title>LA</title>
<polygon fill="none" stroke="black" points="225.69,-62 98.6904,-62 98.6904,-16 225.69,-16 225.69,-62"/>
<text text-anchor="start" x="117.69" y="-47.8" font-family="Times,serif" font-size="14.00">lexical analyser </text>
<text text-anchor="start" x="106.69" y="-33.8" font-family="Times,serif" font-size="14.00"> </text>
<text text-anchor="start" x="110.69" y="-33.8" font-family="Times,serif" font-size="10.00">Identify tokens delemited </text>
<text text-anchor="start" x="120.19" y="-23" font-family="Times,serif" font-size="10.00"> with metacharacters</text>
</g>
<!-- PA&#45;&gt;LA -->
<g id="edge8" class="edge"><title>PA&#45;&gt;LA</title>
<path fill="none" stroke="black" stroke-dasharray="5,2" d="M162.19,-123.574C162.19,-108.065 162.19,-88.5847 162.19,-72.3342"/>
<polygon fill="black" stroke="black" points="158.69,-123.656 162.19,-133.656 165.69,-123.656 158.69,-123.656"/>
<polygon fill="black" stroke="black" points="165.69,-72.1957 162.19,-62.1957 158.69,-72.1958 165.69,-72.1957"/>
</g>
<!-- IP -->
<g id="node9" class="node"><title>IP</title>
<polygon fill="none" stroke="black" points="172.563,-507.944 172.563,-530.809 123.139,-546.976 53.2421,-546.976 3.81789,-530.809 3.81789,-507.944 53.2421,-491.777 123.139,-491.777 172.563,-507.944"/>
<polygon fill="none" stroke="black" points="176.571,-505.04 176.571,-533.713 123.778,-550.983 52.6029,-550.983 -0.190767,-533.713 -0.190767,-505.04 52.6029,-487.77 123.778,-487.77 176.571,-505.04"/>
<text text-anchor="start" x="41.1904" y="-523.177" font-family="Times,serif" font-size="14.00">input processing </text>
<text text-anchor="start" x="58.1904" y="-509.177" font-family="Times,serif" font-size="14.00"> </text>
<text text-anchor="start" x="62.1904" y="-509.177" font-family="Times,serif" font-size="10.00">Grab one line</text>
</g>
<!-- IP&#45;&gt;PS -->
<g id="edge1" class="edge"><title>IP&#45;&gt;PS</title>
<path fill="none" stroke="black" d="M88.1904,-487.631C88.1904,-469.048 88.1904,-445.311 88.1904,-426.058"/>
<polygon fill="black" stroke="black" points="91.6905,-425.884 88.1904,-415.884 84.6905,-425.884 91.6905,-425.884"/>
</g>
<!-- EX&#45;&gt;CS -->
<g id="edge11" class="edge"><title>EX&#45;&gt;CS</title>
<path fill="none" stroke="black" stroke-dasharray="5,2" d="M316.169,-177.091C301.479,-193.926 281.719,-216.572 265.766,-234.854"/>
<polygon fill="black" stroke="black" points="318.996,-179.174 322.934,-169.338 313.722,-174.572 318.996,-179.174"/>
<polygon fill="black" stroke="black" points="263.123,-232.559 259.186,-242.395 268.398,-237.161 263.123,-232.559"/>
</g>
</g>
</svg>
