<?xml version="1.0" encoding="UTF-8" standalone="no"?>
<!DOCTYPE svg PUBLIC "-//W3C//DTD SVG 1.1//EN"
 "http://www.w3.org/Graphics/SVG/1.1/DTD/svg11.dtd">
<!-- Generated by graphviz version 2.38.0 (20140413.2041)
 -->
<!-- Title: wordexpansions Pages: 1 -->
<svg width="590pt" height="320pt"
 viewBox="0.00 0.00 590.00 320.00" xmlns="http://www.w3.org/2000/svg" xmlns:xlink="http://www.w3.org/1999/xlink">
<g id="graph0" class="graph" transform="scale(1 1) rotate(0) translate(4 316)">
<title>wordexpansions</title>
<polygon fill="white" stroke="none" points="-4,4 -4,-316 586,-316 586,4 -4,4"/>
<!-- PVE -->
<g id="node1" class="node"><title>PVE</title>
<text text-anchor="start" x="8" y="-41.8" font-family="Times,serif" font-size="14.00">parameter expansion </text>
<text text-anchor="start" x="48.5" y="-17" font-family="monospace" font-size="10.00">$PARAM</text>
<text text-anchor="start" x="30.5" y="-7" font-family="monospace" font-size="10.00">${PARAM:...}</text>
</g>
<!-- ARE -->
<g id="node2" class="node"><title>ARE</title>
<text text-anchor="start" x="160.5" y="-41.8" font-family="Times,serif" font-size="14.00">arithmetic expansion</text>
<text text-anchor="start" x="166.5" y="-17" font-family="monospace" font-size="10.00">$(( EXPRESSION ))</text>
<text text-anchor="start" x="169.5" y="-7" font-family="monospace" font-size="10.00"> $[ EXPRESSION ]</text>
</g>
<!-- CMS -->
<g id="node3" class="node"><title>CMS</title>
<text text-anchor="start" x="310" y="-41.8" font-family="Times,serif" font-size="14.00">command substitution</text>
<text text-anchor="start" x="334.5" y="-17" font-family="monospace" font-size="10.00">$( COMMAND )</text>
<text text-anchor="start" x="343.5" y="-7" font-family="monospace" font-size="10.00">`COMMAND`</text>
</g>
<!-- TLE -->
<g id="node4" class="node"><title>TLE</title>
<text text-anchor="start" x="252.5" y="-179.8" font-family="Times,serif" font-size="14.00">tilde expansion</text>
<text text-anchor="start" x="290.5" y="-155" font-family="monospace" font-size="10.00">~</text>
<text text-anchor="start" x="287.5" y="-145" font-family="monospace" font-size="10.00">~+</text>
<text text-anchor="start" x="287.5" y="-135" font-family="monospace" font-size="10.00">~&#45;</text>
</g>
<!-- TLE&#45;&gt;PVE -->
<g id="edge2" class="edge"><title>TLE&#45;&gt;PVE</title>
<path fill="none" stroke="black" d="M244.464,-131.413C208.595,-110.714 160.071,-82.7107 122.829,-61.2185"/>
<polygon fill="black" stroke="black" points="124.512,-58.1491 114.102,-56.1821 121.014,-64.2119 124.512,-58.1491"/>
</g>
<!-- TLE&#45;&gt;ARE -->
<g id="edge3" class="edge"><title>TLE&#45;&gt;ARE</title>
<path fill="none" stroke="black" d="M275.408,-127.954C264.357,-108.905 250.312,-84.6952 238.88,-64.9905"/>
<polygon fill="black" stroke="black" points="241.877,-63.1821 233.832,-56.2887 235.822,-66.6949 241.877,-63.1821"/>
</g>
<!-- TLE&#45;&gt;CMS -->
<g id="edge4" class="edge"><title>TLE&#45;&gt;CMS</title>
<path fill="none" stroke="black" d="M312.836,-127.954C324.033,-108.905 338.263,-84.6952 349.845,-64.9905"/>
<polygon fill="black" stroke="black" points="352.91,-66.6834 354.96,-56.2887 346.875,-63.1362 352.91,-66.6834"/>
</g>
<!-- PRS -->
<g id="node6" class="node"><title>PRS</title>
<text text-anchor="start" x="466" y="-36.8" font-family="Times,serif" font-size="14.00">process substitution</text>
<text text-anchor="start" x="489.5" y="-12" font-family="monospace" font-size="10.00">&lt;(COMMAND)</text>
</g>
<!-- TLE&#45;&gt;PRS -->
<g id="edge5" class="edge"><title>TLE&#45;&gt;PRS</title>
<path fill="none" stroke="black" d="M343.597,-131.251C382.09,-108.939 435.096,-78.214 472.934,-56.2817"/>
<polygon fill="black" stroke="black" points="474.83,-59.2283 481.726,-51.1853 471.319,-53.1722 474.83,-59.2283"/>
</g>
<!-- BRE -->
<g id="node5" class="node"><title>BRE</title>
<text text-anchor="start" x="250" y="-297.8" font-family="Times,serif" font-size="14.00">brace expansion</text>
<text text-anchor="start" x="272.5" y="-273" font-family="monospace" font-size="10.00">{a,b,c}</text>
</g>
<!-- BRE&#45;&gt;TLE -->
<g id="edge1" class="edge"><title>BRE&#45;&gt;TLE</title>
<path fill="none" stroke="black" d="M294,-265.764C294,-248.841 294,-225.042 294,-204.504"/>
<polygon fill="black" stroke="black" points="297.5,-204.423 294,-194.423 290.5,-204.423 297.5,-204.423"/>
</g>
</g>
</svg>
